<svg width="15" height="15" viewBox="0 0 15 15" fill="none" xmlns="http://www.w3.org/2000/svg">
<path d="M7.6229 2.05987e-05C7.78123 2.05848e-05 7.93957 0.058353 8.06457 0.183353L13.4979 5.61669C14.3812 6.50002 14.3812 7.95002 13.4979 8.83335L8.06457 14.2667C7.8229 14.5084 7.4229 14.5084 7.18123 14.2667C6.93957 14.025 6.93957 13.625 7.18123 13.3834L12.6146 7.95002C13.0146 7.55002 13.0146 6.90002 12.6146 6.50002L7.18123 1.06669C6.93957 0.825021 6.93957 0.42502 7.18123 0.183353C7.30623 0.0666863 7.46457 2.06125e-05 7.6229 2.05987e-05Z" fill="#D31B27"/>
<path d="M0.6229 2.05987e-05C0.781233 2.05848e-05 0.939566 0.058353 1.06457 0.183353L6.4979 5.61669C7.38123 6.50002 7.38123 7.95002 6.4979 8.83335L1.06457 14.2667C0.8229 14.5084 0.422901 14.5084 0.181234 14.2667C-0.0604325 14.025 -0.0604325 13.625 0.181234 13.3834L5.61457 7.95002C6.01457 7.55002 6.01457 6.90002 5.61457 6.50002L0.181233 1.06669C-0.0604336 0.825021 -0.0604337 0.42502 0.181233 0.183353C0.306233 0.0666863 0.464566 2.06125e-05 0.6229 2.05987e-05Z" fill="#D31B27"/>
</svg>
