<?xml version="1.0" encoding="UTF-8" standalone="no"?> <svg width="64" height="64" viewBox="0 0 64 64" fill="none" xmlns="http://www.w3.org/2000/svg">
<path d="M51 2H13C11.6739 2 10.4021 2.52678 9.46447 3.46447C8.52678 4.40215 8 5.67392 8 7V57C8 58.3261 8.52678 59.5979 9.46447 60.5355C10.4021 61.4732 11.6739 62 13 62H51C52.3261 62 53.5979 61.4732 54.5355 60.5355C55.4732 59.5979 56 58.3261 56 57V7C56 5.67392 55.4732 4.40215 54.5355 3.46447C53.5979 2.52678 52.3261 2 51 2V2ZM54 57C53.9976 57.7949 53.6808 58.5566 53.1187 59.1187C52.5566 59.6808 51.7949 59.9976 51 60H13C12.2051 59.9976 11.4434 59.6808 10.8813 59.1187C10.3192 58.5566 10.0024 57.7949 10 57V7C10.0024 6.20508 10.3192 5.4434 10.8813 4.8813C11.4434 4.31921 12.2051 4.00237 13 4H51C51.7949 4.00237 52.5566 4.31921 53.1187 4.8813C53.6808 5.4434 53.9976 6.20508 54 7V57Z" fill="black"/>
<path d="M50 6H14C13.4701 6.00158 12.9623 6.2128 12.5875 6.58753C12.2128 6.96227 12.0016 7.47005 12 8V48C12.0016 48.5299 12.2128 49.0377 12.5875 49.4125C12.9623 49.7872 13.4701 49.9984 14 50H50C50.5299 49.9984 51.0377 49.7872 51.4125 49.4125C51.7872 49.0377 51.9984 48.5299 52 48V8C51.9984 7.47005 51.7872 6.96227 51.4125 6.58753C51.0377 6.2128 50.5299 6.00158 50 6V6ZM50 48H14V8H50V48Z" fill="black"/>
<path d="M34 52H30C29.2044 52 28.4413 52.3161 27.8787 52.8787C27.3161 53.4413 27 54.2044 27 55C27 55.7956 27.3161 56.5587 27.8787 57.1213C28.4413 57.6839 29.2044 58 30 58H34C34.7956 58 35.5587 57.6839 36.1213 57.1213C36.6839 56.5587 37 55.7956 37 55C37 54.2044 36.6839 53.4413 36.1213 52.8787C35.5587 52.3161 34.7956 52 34 52ZM34 56H30C29.7348 56 29.4804 55.8946 29.2929 55.7071C29.1054 55.5196 29 55.2652 29 55C29 54.7348 29.1054 54.4804 29.2929 54.2929C29.4804 54.1054 29.7348 54 30 54H34C34.2652 54 34.5196 54.1054 34.7071 54.2929C34.8946 54.4804 35 54.7348 35 55C35 55.2652 34.8946 55.5196 34.7071 55.7071C34.5196 55.8946 34.2652 56 34 56Z" fill="black"/>
<path d="M44 17H36C35.2211 17.003 34.4538 17.1882 33.7593 17.5406C33.0647 17.8931 32.4623 18.4032 32 19.03C31.5377 18.4032 30.9353 17.8931 30.2407 17.5406C29.5462 17.1882 28.7789 17.003 28 17H20C19.7348 17 19.4804 17.1054 19.2929 17.2929C19.1054 17.4804 19 17.7348 19 18V38C19 38.2652 19.1054 38.5196 19.2929 38.7071C19.4804 38.8946 19.7348 39 20 39H44C44.2652 39 44.5196 38.8946 44.7071 38.7071C44.8946 38.5196 45 38.2652 45 38V18C45 17.7348 44.8946 17.4804 44.7071 17.2929C44.5196 17.1054 44.2652 17 44 17ZM21 37V35H28C28.6202 35.0017 29.2247 35.1947 29.7312 35.5526C30.2376 35.9105 30.6214 36.416 30.83 37H21ZM31 34.03C30.141 33.3652 29.0862 33.003 28 33H21V19H28C28.7949 19.0024 29.5566 19.3192 30.1187 19.8813C30.6808 20.4434 30.9976 21.2051 31 22V34.03ZM43 37H33.17C33.3786 36.416 33.7624 35.9105 34.2688 35.5526C34.7753 35.1947 35.3798 35.0017 36 35H43V37ZM43 33H36C34.9138 33.003 33.859 33.3652 33 34.03V22C33.0024 21.2051 33.3192 20.4434 33.8813 19.8813C34.4434 19.3192 35.2051 19.0024 36 19H43V33Z" fill="black"/>
<path d="M29 21H23V23H29V21Z" fill="black"/>
<path d="M29 25H23V27H29V25Z" fill="black"/>
<path d="M29 29H23V31H29V29Z" fill="black"/>
<path d="M41 21H35V23H41V21Z" fill="black"/>
<path d="M41 25H35V27H41V25Z" fill="black"/>
<path d="M41 29H35V31H41V29Z" fill="black"/>
</svg>
