<svg width="40" height="34" viewBox="0 0 40 34" fill="none" xmlns="http://www.w3.org/2000/svg">
<g id="Frame 1000004318">
<path id="Vector" d="M32.7946 10.4022C32.7946 10.2982 32.8125 10.1942 32.8125 10.0902C32.8125 4.5163 28.0982 0 22.3839 0C18.2679 0 14.7232 2.34917 13.0625 5.74723C12.3393 5.39182 11.5357 5.19244 10.6696 5.19244C8.02679 5.19244 5.83929 7.23821 5.41071 9.70007C2.26786 10.749 0 13.7483 0 17.181C0 21.4892 3.58036 25 8 25H16.1607V23.613H8.07143C4.41964 23.613 1.44643 20.7091 1.44643 17.1463C1.44643 14.3897 3.25 11.8412 5.92857 10.9397L6.67857 10.6883L6.8125 9.92545C7.13393 8.05305 8.78571 6.51872 10.7321 6.51872C11.3482 6.51872 11.9554 6.65742 12.5089 6.93481L13.7143 7.52427L14.2946 6.33668C15.7768 3.31137 18.9464 1.36096 22.3661 1.36096C27.3036 1.36096 31.375 5.11442 31.375 9.93412C31.375 11.087 31.3571 11.6938 31.3571 11.6938L32.7143 11.7025C35.9821 11.7458 38.5714 14.5978 38.5714 17.7965C38.5714 20.9865 35.9107 23.5957 32.6339 23.613H32.3482H23.6607V25H32.6786C36.6964 25 40 21.7666 40 17.8225C40 13.8783 36.8304 10.4109 32.7946 10.4022Z" fill="#2E4857"/>
<path id="Vector_2" d="M14.0899 17.5489L13 16.5295L20 10L27 16.5295L25.9007 17.5489L20.7705 12.7506V34H19.2201V12.7506L14.0899 17.5489Z" fill="#2E4857"/>
</g>
</svg>
