<svg width="24" height="24" viewBox="0 0 24 24" fill="none" xmlns="http://www.w3.org/2000/svg">
<path d="M20.2502 20.25H3.75017C3.62232 20.2496 3.4967 20.2166 3.38522 20.154C3.27375 20.0914 3.18012 20.0013 3.11324 19.8923C3.04636 19.7834 3.00845 19.6591 3.0031 19.5314C2.99775 19.4037 3.02514 19.2767 3.08267 19.1625C4.00807 17.2973 4.49302 15.2446 4.50017 13.1625V10.5C4.50017 8.51088 5.29035 6.60322 6.69687 5.1967C8.10339 3.79018 10.011 3 12.0002 3C13.9893 3 15.8969 3.79018 17.3035 5.1967C18.71 6.60322 19.5002 8.51088 19.5002 10.5V13.1475C19.5073 15.2296 19.9923 17.2823 20.9177 19.1475C20.9787 19.2622 21.009 19.3908 21.0054 19.5207C21.0018 19.6506 20.9646 19.7773 20.8973 19.8885C20.83 19.9996 20.7349 20.0914 20.6215 20.1548C20.5081 20.2181 20.3801 20.251 20.2502 20.25ZM4.91267 18.75H19.0877C18.3725 16.9686 18.0034 15.0671 18.0002 13.1475V10.5C18.0002 8.9087 17.368 7.38258 16.2428 6.25736C15.1176 5.13214 13.5915 4.5 12.0002 4.5C10.4089 4.5 8.88275 5.13214 7.75753 6.25736C6.63231 7.38258 6.00017 8.9087 6.00017 10.5V13.1475C5.99697 15.0671 5.62788 16.9686 4.91267 18.75Z" fill="#4E6776"/>
<path d="M12 23.25C11.0054 23.25 10.0516 22.8549 9.34835 22.1517C8.64509 21.4484 8.25 20.4946 8.25 19.5C8.25 19.3011 8.32902 19.1103 8.46967 18.9697C8.61032 18.829 8.80109 18.75 9 18.75C9.19891 18.75 9.38968 18.829 9.53033 18.9697C9.67098 19.1103 9.75 19.3011 9.75 19.5C9.75052 20.0965 9.98792 20.6684 10.41 21.09C10.8392 21.4973 11.4083 21.7243 12 21.7243C12.5917 21.7243 13.1608 21.4973 13.59 21.09C13.6599 21.0201 13.7429 20.9646 13.8343 20.9268C13.9257 20.8889 14.0236 20.8694 14.1225 20.8694C14.2214 20.8694 14.3193 20.8889 14.4107 20.9268C14.5021 20.9646 14.5851 21.0201 14.655 21.09C14.7249 21.1599 14.7804 21.2429 14.8182 21.3343C14.8561 21.4257 14.8756 21.5236 14.8756 21.6225C14.8756 21.7214 14.8561 21.8193 14.8182 21.9107C14.7804 22.0021 14.7249 22.0851 14.655 22.155C14.3061 22.503 13.892 22.7788 13.4365 22.9667C12.9809 23.1546 12.4928 23.2509 12 23.25Z" fill="#4E6776"/>
<path d="M12 4.5C11.8011 4.5 11.6103 4.42098 11.4697 4.28033C11.329 4.13968 11.25 3.94891 11.25 3.75V1.5C11.25 1.30109 11.329 1.11032 11.4697 0.96967C11.6103 0.829018 11.8011 0.75 12 0.75C12.1989 0.75 12.3897 0.829018 12.5303 0.96967C12.671 1.11032 12.75 1.30109 12.75 1.5V3.75C12.75 3.94891 12.671 4.13968 12.5303 4.28033C12.3897 4.42098 12.1989 4.5 12 4.5Z" fill="#4E6776"/>
</svg>
