<?xml version="1.0" encoding="UTF-8" standalone="no"?>
<svg
   xmlns:dc="http://purl.org/dc/elements/1.1/"
   xmlns:cc="http://creativecommons.org/ns#"
   xmlns:rdf="http://www.w3.org/1999/02/22-rdf-syntax-ns#"
   xmlns:svg="http://www.w3.org/2000/svg"
   xmlns="http://www.w3.org/2000/svg"
   xmlns:sodipodi="http://sodipodi.sourceforge.net/DTD/sodipodi-0.dtd"
   xmlns:inkscape="http://www.inkscape.org/namespaces/inkscape"
   id="svg8"
   version="1.1"
   viewBox="0 0 16.933333 16.933333"
   height="64"
   width="64"
   sodipodi:docname="09-Paper Bag.svg"
   inkscape:version="0.92.3 (2405546, 2018-03-11)">
  <sodipodi:namedview
     pagecolor="#ffffff"
     bordercolor="#666666"
     borderopacity="1"
     objecttolerance="10"
     gridtolerance="10"
     guidetolerance="10"
     inkscape:pageopacity="0"
     inkscape:pageshadow="2"
     inkscape:window-width="1920"
     inkscape:window-height="1040"
     id="namedview7"
     showgrid="false"
     inkscape:zoom="10.429825"
     inkscape:cx="26.33154"
     inkscape:cy="31.909382"
     inkscape:window-x="0"
     inkscape:window-y="0"
     inkscape:window-maximized="1"
     inkscape:current-layer="layer1" />
  <defs
     id="defs2" />
  <metadata
     id="metadata5">
    <rdf:RDF>
      <cc:Work
         rdf:about="">
        <dc:format>image/svg+xml</dc:format>
        <dc:type
           rdf:resource="http://purl.org/dc/dcmitype/StillImage" />
        <dc:title />
      </cc:Work>
    </rdf:RDF>
  </metadata>
  <g
     inkscape:groupmode="layer"
     id="layer1"
     inkscape:label="09-Paper Bag">
    <path
       style="color:#000000;font-style:normal;font-variant:normal;font-weight:normal;font-stretch:normal;font-size:medium;line-height:normal;font-family:sans-serif;font-variant-ligatures:normal;font-variant-position:normal;font-variant-caps:normal;font-variant-numeric:normal;font-variant-alternates:normal;font-feature-settings:normal;text-indent:0;text-align:start;text-decoration:none;text-decoration-line:none;text-decoration-style:solid;text-decoration-color:#000000;letter-spacing:normal;word-spacing:normal;text-transform:none;writing-mode:lr-tb;direction:ltr;text-orientation:mixed;dominant-baseline:auto;baseline-shift:baseline;text-anchor:start;white-space:normal;shape-padding:0;clip-rule:nonzero;display:inline;overflow:visible;visibility:visible;opacity:1;isolation:auto;mix-blend-mode:normal;color-interpolation:sRGB;color-interpolation-filters:linearRGB;solid-color:#000000;solid-opacity:1;vector-effect:none;fill:#000000;fill-opacity:1;fill-rule:nonzero;stroke:none;stroke-width:0.52917582;stroke-linecap:butt;stroke-linejoin:miter;stroke-miterlimit:4;stroke-dasharray:none;stroke-dashoffset:0;stroke-opacity:1;color-rendering:auto;image-rendering:auto;shape-rendering:auto;text-rendering:auto;enable-background:accumulate"
       d="m 2.6458928,0.529168 c -0.14618,-5.6101e-4 -0.26511,0.11737899 -0.26563,0.26354899 0,1.55075291 -0.31614,2.49331381 -0.64236,3.30884191 -0.32622,0.8155281 -0.67957,1.524504 -0.67957,2.5135419 v 9.5234502 c -5.6e-4,0.146169 0.11739,0.265099 0.26356,0.265616 H 12.965002 c 0.0476,-6.62e-4 0.0938,-0.01381 0.13539,-0.03772 l 2.64593,-1.586984 c 0.0798,-0.04767 0.12849,-0.133939 0.12868,-0.226862 V 6.6151008 c 0,-0.9890379 -0.35335,-1.6980138 -0.67957,-2.5135419 -0.32622,-0.8155281 -0.64288,-1.758089 -0.64288,-3.30884191 -5.1e-4,-0.14617 -0.11945,-0.26411099 -0.26562,-0.26354899 z m 0.26149,0.529683 H 14.020272 c -0.0449,1.3393229 -0.28675,2.161465 -0.63926,3.0427079 -0.1629,0.4072379 -0.33346,0.7878371 -0.46304,1.190108 H 1.8407428 c 0.11158,-0.3151601 0.24509,-0.632586 0.38914,-0.992704 0.43043,-1.0760471 0.63449,-1.923028 0.6775,-3.2401119 z m 3.44177,1.0578159 c -0.4351901,1.42e-4 -0.79326,0.350319 -0.79326,0.79375 0,0.443429 0.3580699,0.79375 0.79326,0.79375 h 3.1761399 c 0.43519,0 0.7932693,-0.350321 0.7932693,-0.79375 0,-0.443431 -0.3580793,-0.793608 -0.7932693,-0.79375 z m 0,0.529167 h 3.1761399 c 0.15117,-3.7e-5 0.26408,0.12066 0.26408,0.264583 0,0.143921 -0.11291,0.2645839 -0.26408,0.2645839 H 6.3491528 c -0.1511601,0 -0.2640801,-0.1206629 -0.2640801,-0.2645839 0,-0.143923 0.11292,-0.26462 0.2640801,-0.264583 z m 7.9382892,0.408761 c 0.0982,0.3758079 0.21059,0.732131 0.4155,1.244368 0.19057,0.4764119 0.37172,0.8783209 0.49301,1.297079 l -0.94985,0.9508458 -0.95656,-0.5746419 c 0.1053,-0.5617109 0.33507,-1.057544 0.58138,-1.6732829 0.20488,-0.512183 0.29612,-0.7796159 0.41652,-1.244368 z m -1.50642,2.7662389 c -0.05,0.2482151 -0.0811,0.508671 -0.0811,0.794267 V 15.875001 H 1.5875528 V 6.6151008 c 0,-0.2867488 0.0359,-0.544966 0.093505,-0.794267 z m 2.53999,0.3989422 c 0.0146,0.1271709 0.0248,0.2574078 0.0248,0.3953248 v 7.4703452 l -0.79326,-0.476457 V 6.9882048 Z m -1.29764,0.808736 v 6.660059 l -0.7943,1.430403 c 0,-2.94814 0.002,-5.8585572 0.002,-8.5653682 z M 6.8778228,6.8791668 c -1.8860401,0 -3.40515,1.5032471 -3.43867,3.3749882 -0.16015,0.144425 -0.26459,0.355394 -0.26459,0.592729 0,0.205822 0.0752,0.3896 0.20154,0.529683 -0.12692,0.141379 -0.20154,0.326021 -0.20154,0.529684 v 0.264066 c 0,0.233443 0.0997,0.445218 0.26459,0.591179 v 0.467155 c 0,0.72832 0.5863599,1.323606 1.3234801,1.323433 1.5872099,-8.73e-4 3.1744199,-4.23e-4 4.7616298,0 0.7371193,1.73e-4 1.3234793,-0.595113 1.3234793,-1.323433 v -0.466122 c 0.16192,-0.140808 0.26459,-0.358551 0.26459,-0.592212 v -0.264066 c 0,-0.20378 -0.0745,-0.388276 -0.20154,-0.529684 0.12631,-0.140083 0.20154,-0.323861 0.20154,-0.529683 0,-0.237745 -0.10189,-0.446217 -0.26459,-0.590662 C 10.813942,8.3847208 9.2980427,6.8791668 7.4080428,6.8791668 Z m 0,0.5296839 h 0.53022 c 1.5233699,0 2.7633292,1.153777 2.8970792,2.6442833 -0.7204593,8.73e-4 -5.6051292,4.5e-4 -6.3248993,0 0.1337,-1.4905063 1.3800801,-2.6442833 2.8976001,-2.6442833 z m 3.4407392,3.1744953 c 0.15116,-2.8e-5 0.26459,0.120659 0.26459,0.26355 0,0.142891 -0.11343,0.265054 -0.26459,0.2651 -0.7055793,8.73e-4 -5.6446492,4.5e-4 -6.3502292,0 -0.1511602,-4.6e-5 -0.26459,-0.122209 -0.26459,-0.2651 0,-0.142891 0.1134298,-0.264095 0.26459,-0.264073 0.70558,8.67e-4 5.6446499,9.73e-4 6.3502292,5.23e-4 z m -2.6614293,1.057288 c 0.52696,-6.8e-5 1.04488,2.52e-4 1.61752,5.29e-4 l -0.80876,1.132747 z m -0.6490801,5.29e-4 0.5674201,0.794783 -3.60765,-5.29e-4 c -0.14293,-2.7e-5 -0.2635599,-0.113946 -0.2635599,-0.2651 v -0.26355 c 0,-0.151154 0.12066,-0.265075 0.2635599,-0.2651 0.9770501,-3.18e-4 2.20082,-4.76e-4 3.0402299,-5.04e-4 z m 2.9172301,0 h 0.3943093 c 0.14289,2.5e-5 0.26356,0.113946 0.26356,0.2651 v 0.264066 c 0,0.151154 -0.12063,0.264514 -0.26356,0.264584 l -0.9617293,10e-4 z m -5.9569499,1.323433 3.9844,5.29e-4 0.2981799,0.418062 c 0.1055701,0.147097 0.32439,0.147097 0.42996,0 l 0.2987,-0.418062 1.3389893,-5.29e-4 v 0.264583 c 0,0.444311 -0.3558093,0.793874 -0.7942993,0.79375 -1.5882499,-0.0017 -3.17338,-4.23e-4 -4.7616298,0 -0.43849,1.24e-4 -0.7943001,-0.349439 -0.7943001,-0.79375 z m 10.4183392,1.160653 0.70954,0.426847 -1.42064,0.851628 z"
       id="path4996"
       inkscape:connector-curvature="0"
       sodipodi:nodetypes="ccccccccccccccccccccccccccccccccccccccccccccccccccccccccccccccccccccccccccccccccccccccccccccccccccccccccccccccccccccccccccccc" />
  </g>
</svg>
