<svg width="22" height="22" viewBox="0 0 22 22" fill="none" xmlns="http://www.w3.org/2000/svg">
<path d="M11 21C16.5228 21 21 16.5228 21 11C21 5.47715 16.5228 1 11 1C5.47715 1 1 5.47715 1 11C1 16.5228 5.47715 21 11 21Z" stroke="#FF5E1E" stroke-miterlimit="10" stroke-linecap="round" stroke-linejoin="round"/>
<path d="M11.0001 13.5664C7.90271 13.5664 5.24784 15.3363 3.92041 17.9912C5.69032 19.8496 8.25669 20.9115 11.0001 20.9115C13.7434 20.9115 16.3098 19.7611 18.0797 17.9912C16.7523 15.4248 14.0974 13.5664 11.0001 13.5664Z" stroke="#FF5E1E" stroke-miterlimit="10" stroke-linecap="round" stroke-linejoin="round"/>
<path d="M10.9998 11.2655C12.7593 11.2655 14.1856 9.83919 14.1856 8.0797C14.1856 6.32021 12.7593 4.89386 10.9998 4.89386C9.24031 4.89386 7.81396 6.32021 7.81396 8.0797C7.81396 9.83919 9.24031 11.2655 10.9998 11.2655Z" stroke="#FF5E1E" stroke-miterlimit="10" stroke-linecap="round" stroke-linejoin="round"/>
</svg>
